<?xml version="1.0" encoding="UTF-8"?>
<svg xmlns="http://www.w3.org/2000/svg" xmlns:xlink="http://www.w3.org/1999/xlink" width="128px" height="128px" viewBox="0 0 128 128" version="1.1">
<g id="surface1">
<path style=" stroke:none;fill-rule:nonzero;fill:rgb(22.745098%,26.666668%,71.764708%);fill-opacity:1;" d="M 83.199219 25.601562 C 83.203125 36.207031 91.792969 44.796875 102.398438 44.800781 C 113.007812 44.796875 121.59375 36.207031 121.601562 25.601562 C 121.59375 14.992188 113.007812 6.40625 102.398438 6.398438 C 91.792969 6.40625 83.203125 14.992188 83.199219 25.601562 C 83.199219 29.136719 86.066406 32 89.601562 32 C 93.136719 32 96 29.136719 96 25.601562 C 96.007812 22.066406 98.867188 19.207031 102.398438 19.199219 C 105.933594 19.207031 108.792969 22.066406 108.800781 25.601562 C 108.792969 29.132812 105.933594 31.992188 102.398438 32 C 98.867188 31.992188 96.007812 29.132812 96 25.601562 C 96 22.066406 93.136719 19.199219 89.601562 19.199219 C 86.066406 19.199219 83.199219 22.066406 83.199219 25.601562 Z M 83.199219 25.601562 "/>
<path style=" stroke:none;fill-rule:nonzero;fill:rgb(22.745098%,26.666668%,71.764708%);fill-opacity:1;" d="M 6.398438 64 C 6.40625 74.609375 14.992188 83.195312 25.601562 83.199219 C 36.207031 83.195312 44.796875 74.609375 44.800781 64 C 44.796875 53.390625 36.207031 44.804688 25.601562 44.800781 C 14.992188 44.804688 6.40625 53.390625 6.398438 64 C 6.398438 67.535156 9.265625 70.398438 12.800781 70.398438 C 16.335938 70.398438 19.199219 67.535156 19.199219 64 C 19.207031 60.46875 22.066406 57.609375 25.601562 57.601562 C 29.132812 57.609375 31.992188 60.46875 32 64 C 31.992188 67.53125 29.132812 70.390625 25.601562 70.398438 C 22.066406 70.390625 19.207031 67.53125 19.199219 64 C 19.199219 60.464844 16.335938 57.601562 12.800781 57.601562 C 9.265625 57.601562 6.398438 60.464844 6.398438 64 Z M 6.398438 64 "/>
<path style=" stroke:none;fill-rule:nonzero;fill:rgb(22.745098%,26.666668%,71.764708%);fill-opacity:1;" d="M 6.398438 102.398438 C 6.40625 113.007812 14.992188 121.59375 25.601562 121.601562 C 36.207031 121.59375 44.796875 113.007812 44.800781 102.398438 C 44.796875 91.792969 36.207031 83.203125 25.601562 83.199219 C 14.992188 83.203125 6.40625 91.792969 6.398438 102.398438 C 6.398438 105.933594 9.265625 108.800781 12.800781 108.800781 C 16.335938 108.800781 19.199219 105.933594 19.199219 102.398438 C 19.207031 98.867188 22.066406 96.007812 25.601562 96 C 29.132812 96.007812 31.992188 98.867188 32 102.398438 C 31.992188 105.933594 29.132812 108.792969 25.601562 108.800781 C 22.066406 108.792969 19.207031 105.933594 19.199219 102.398438 C 19.199219 98.863281 16.335938 96 12.800781 96 C 9.265625 96 6.398438 98.863281 6.398438 102.398438 Z M 6.398438 102.398438 "/>
<path style=" stroke:none;fill-rule:nonzero;fill:rgb(22.745098%,26.666668%,71.764708%);fill-opacity:1;" d="M 83.199219 102.398438 C 83.203125 113.007812 91.792969 121.59375 102.398438 121.601562 C 113.007812 121.59375 121.59375 113.007812 121.601562 102.398438 C 121.59375 91.792969 113.007812 83.203125 102.398438 83.199219 C 91.792969 83.203125 83.203125 91.792969 83.199219 102.398438 C 83.199219 105.933594 86.066406 108.800781 89.601562 108.800781 C 93.136719 108.800781 96 105.933594 96 102.398438 C 96.007812 98.867188 98.867188 96.007812 102.398438 96 C 105.933594 96.007812 108.792969 98.867188 108.800781 102.398438 C 108.792969 105.933594 105.933594 108.792969 102.398438 108.800781 C 98.867188 108.792969 96.007812 105.933594 96 102.398438 C 96 98.863281 93.136719 96 89.601562 96 C 86.066406 96 83.199219 98.863281 83.199219 102.398438 Z M 83.199219 102.398438 "/>
<path style=" stroke:none;fill-rule:nonzero;fill:rgb(22.745098%,26.666668%,71.764708%);fill-opacity:1;" d="M 38.398438 108.800781 L 89.601562 108.800781 C 93.136719 108.800781 96 105.933594 96 102.398438 C 96 98.863281 93.136719 96 89.601562 96 L 38.398438 96 C 34.863281 96 32 98.863281 32 102.398438 C 32 105.933594 34.863281 108.800781 38.398438 108.800781 "/>
<path style=" stroke:none;fill-rule:nonzero;fill:rgb(22.745098%,26.666668%,71.764708%);fill-opacity:1;" d="M 96 115.199219 L 96 121.601562 C 96 125.136719 98.863281 128 102.398438 128 C 105.933594 128 108.800781 125.136719 108.800781 121.601562 L 108.800781 115.199219 C 108.800781 111.664062 105.933594 108.800781 102.398438 108.800781 C 98.863281 108.800781 96 111.664062 96 115.199219 "/>
<path style=" stroke:none;fill-rule:nonzero;fill:rgb(22.745098%,26.666668%,71.764708%);fill-opacity:1;" d="M 96 6.398438 L 96 12.800781 C 96 16.335938 98.863281 19.199219 102.398438 19.199219 C 105.933594 19.199219 108.800781 16.335938 108.800781 12.800781 L 108.800781 6.398438 C 108.800781 2.863281 105.933594 0 102.398438 0 C 98.863281 0 96 2.863281 96 6.398438 "/>
<path style=" stroke:none;fill-rule:nonzero;fill:rgb(22.745098%,26.666668%,71.764708%);fill-opacity:1;" d="M 19.199219 115.199219 L 19.199219 121.601562 C 19.199219 125.136719 22.066406 128 25.601562 128 C 29.136719 128 32 125.136719 32 121.601562 L 32 115.199219 C 32 111.664062 29.136719 108.800781 25.601562 108.800781 C 22.066406 108.800781 19.199219 111.664062 19.199219 115.199219 "/>
<path style=" stroke:none;fill-rule:nonzero;fill:rgb(22.745098%,26.666668%,71.764708%);fill-opacity:1;" d="M 32 51.199219 L 32 6.398438 C 32 2.863281 29.136719 0 25.601562 0 C 22.066406 0 19.199219 2.863281 19.199219 6.398438 L 19.199219 51.199219 C 19.199219 54.734375 22.066406 57.601562 25.601562 57.601562 C 29.136719 57.601562 32 54.734375 32 51.199219 "/>
<path style=" stroke:none;fill-rule:nonzero;fill:rgb(22.745098%,26.666668%,71.764708%);fill-opacity:1;" d="M 57.601562 6.398438 L 57.601562 121.601562 C 57.601562 125.136719 60.464844 128 64 128 C 67.535156 128 70.398438 125.136719 70.398438 121.601562 L 70.398438 6.398438 C 70.398438 2.863281 67.535156 0 64 0 C 60.464844 0 57.601562 2.863281 57.601562 6.398438 "/>
<path style=" stroke:none;fill-rule:nonzero;fill:rgb(22.745098%,26.666668%,71.764708%);fill-opacity:1;" d="M 96 38.398438 L 96 89.601562 C 96 93.136719 98.863281 96 102.398438 96 C 105.933594 96 108.800781 93.136719 108.800781 89.601562 L 108.800781 38.398438 C 108.800781 34.863281 105.933594 32 102.398438 32 C 98.863281 32 96 34.863281 96 38.398438 "/>
<path style=" stroke:none;fill-rule:nonzero;fill:rgb(22.745098%,26.666668%,71.764708%);fill-opacity:1;" d="M 38.398438 70.398438 L 121.601562 70.398438 C 125.136719 70.398438 128 67.535156 128 64 C 128 60.464844 125.136719 57.601562 121.601562 57.601562 L 38.398438 57.601562 C 34.863281 57.601562 32 60.464844 32 64 C 32 67.535156 34.863281 70.398438 38.398438 70.398438 "/>
<path style=" stroke:none;fill-rule:nonzero;fill:rgb(22.745098%,26.666668%,71.764708%);fill-opacity:1;" d="M 121.601562 19.199219 L 115.199219 19.199219 C 111.664062 19.199219 108.800781 22.066406 108.800781 25.601562 C 108.800781 29.136719 111.664062 32 115.199219 32 L 121.601562 32 C 125.136719 32 128 29.136719 128 25.601562 C 128 22.066406 125.136719 19.199219 121.601562 19.199219 "/>
<path style=" stroke:none;fill-rule:nonzero;fill:rgb(22.745098%,26.666668%,71.764708%);fill-opacity:1;" d="M 89.601562 19.199219 L 6.398438 19.199219 C 2.863281 19.199219 0 22.066406 0 25.601562 C 0 29.136719 2.863281 32 6.398438 32 L 89.601562 32 C 93.136719 32 96 29.136719 96 25.601562 C 96 22.066406 93.136719 19.199219 89.601562 19.199219 "/>
<path style=" stroke:none;fill-rule:nonzero;fill:rgb(22.745098%,26.666668%,71.764708%);fill-opacity:1;" d="M 6.398438 70.398438 L 12.800781 70.398438 C 16.335938 70.398438 19.199219 67.535156 19.199219 64 C 19.199219 60.464844 16.335938 57.601562 12.800781 57.601562 L 6.398438 57.601562 C 2.863281 57.601562 0 60.464844 0 64 C 0 67.535156 2.863281 70.398438 6.398438 70.398438 "/>
<path style=" stroke:none;fill-rule:nonzero;fill:rgb(22.745098%,26.666668%,71.764708%);fill-opacity:1;" d="M 115.199219 108.800781 L 121.601562 108.800781 C 125.136719 108.800781 128 105.933594 128 102.398438 C 128 98.863281 125.136719 96 121.601562 96 L 115.199219 96 C 111.664062 96 108.800781 98.863281 108.800781 102.398438 C 108.800781 105.933594 111.664062 108.800781 115.199219 108.800781 "/>
<path style=" stroke:none;fill-rule:nonzero;fill:rgb(22.745098%,26.666668%,71.764708%);fill-opacity:1;" d="M 6.398438 108.800781 L 12.800781 108.800781 C 16.335938 108.800781 19.199219 105.933594 19.199219 102.398438 C 19.199219 98.863281 16.335938 96 12.800781 96 L 6.398438 96 C 2.863281 96 0 98.863281 0 102.398438 C 0 105.933594 2.863281 108.800781 6.398438 108.800781 "/>
<path style=" stroke:none;fill-rule:nonzero;fill:rgb(22.745098%,26.666668%,71.764708%);fill-opacity:1;" d="M 19.199219 76.800781 L 19.199219 89.601562 C 19.199219 93.136719 22.066406 96 25.601562 96 C 29.136719 96 32 93.136719 32 89.601562 L 32 76.800781 C 32 73.265625 29.136719 70.398438 25.601562 70.398438 C 22.066406 70.398438 19.199219 73.265625 19.199219 76.800781 "/>
</g>
</svg>
