<?xml version="1.0" encoding="UTF-8"?>
<svg xmlns="http://www.w3.org/2000/svg" xmlns:xlink="http://www.w3.org/1999/xlink" width="16px" height="16px" viewBox="0 0 16 16" version="1.1">
<g id="surface1">
<path style=" stroke:none;fill-rule:nonzero;fill:rgb(61.176473%,15.294118%,69.01961%);fill-opacity:1;" d="M 6.398438 7.199219 L 5.648438 8.847656 L 4 9.601562 L 5.648438 10.351562 L 6.398438 12 L 7.152344 10.351562 L 8.800781 9.601562 L 7.152344 8.847656 M 12.800781 1.601562 L 14.398438 4.800781 L 12 4.800781 L 10.398438 1.601562 L 8.800781 1.601562 L 10.398438 4.800781 L 8 4.800781 L 6.398438 1.601562 L 4.800781 1.601562 L 6.398438 4.800781 L 4 4.800781 L 2.398438 1.601562 L 1.601562 1.601562 C 0.726562 1.601562 0 2.320312 0 3.199219 L 0 12.800781 C 0 13.679688 0.726562 14.398438 1.601562 14.398438 L 14.398438 14.398438 C 15.289062 14.398438 16 13.679688 16 12.800781 L 16 1.601562 L 12.800781 1.601562 M 14.398438 12.800781 L 1.601562 12.800781 L 1.601562 3.574219 L 3.015625 6.398438 L 11.199219 6.398438 L 10.695312 7.496094 L 9.601562 8 L 10.695312 8.503906 L 11.199219 9.601562 L 11.703125 8.503906 L 12.800781 8 L 11.703125 7.496094 L 11.199219 6.398438 L 14.398438 6.398438 Z M 14.398438 12.800781 "/>
</g>
</svg>
