<?xml version="1.0" encoding="UTF-8"?>
<svg xmlns="http://www.w3.org/2000/svg" xmlns:xlink="http://www.w3.org/1999/xlink" width="16px" height="16px" viewBox="0 0 16 16" version="1.1">
<g id="surface1">
<path style=" stroke:none;fill-rule:nonzero;fill:rgb(1.176471%,66.274512%,95.686275%);fill-opacity:1;" d="M 15.113281 4.445312 L 12.617188 4.445312 C 12.214844 3.734375 11.664062 3.113281 10.996094 2.667969 L 12.445312 1.253906 L 11.191406 0 L 9.261719 1.929688 C 8.855469 1.832031 8.445312 1.777344 8 1.777344 C 7.554688 1.777344 7.15625 1.832031 6.746094 1.929688 L 4.808594 0 L 3.554688 1.253906 L 4.992188 2.667969 C 4.328125 3.113281 3.785156 3.746094 3.382812 4.445312 L 0.886719 4.445312 L 0.886719 6.226562 L 2.742188 6.226562 C 2.691406 6.519531 2.664062 6.8125 2.664062 7.113281 L 2.664062 8.003906 L 0.886719 8.003906 L 0.886719 9.78125 L 2.664062 9.78125 L 2.664062 10.671875 C 2.664062 10.976562 2.691406 11.269531 2.742188 11.5625 L 0.886719 11.5625 L 0.886719 13.339844 L 3.382812 13.339844 C 4.859375 15.894531 8.125 16.753906 10.667969 15.28125 C 11.476562 14.816406 12.152344 14.140625 12.617188 13.339844 L 15.113281 13.339844 L 15.113281 11.5625 L 13.257812 11.5625 C 13.308594 11.269531 13.335938 10.976562 13.335938 10.671875 L 13.335938 9.78125 L 15.113281 9.78125 L 15.113281 8.003906 L 13.335938 8.003906 L 13.335938 7.113281 C 13.335938 6.8125 13.308594 6.519531 13.257812 6.226562 L 15.113281 6.226562 L 15.113281 4.445312 M 11.558594 10.671875 C 11.558594 12.636719 9.964844 14.230469 8 14.230469 C 6.035156 14.230469 4.441406 12.636719 4.441406 10.671875 L 4.441406 7.113281 C 4.441406 5.148438 6.035156 3.558594 8 3.558594 C 9.964844 3.558594 11.558594 5.148438 11.558594 7.113281 L 11.558594 10.671875 M 9.777344 6.226562 L 9.777344 8.003906 L 6.222656 8.003906 L 6.222656 6.226562 L 9.777344 6.226562 M 6.222656 9.78125 L 9.777344 9.78125 L 9.777344 11.5625 L 6.222656 11.5625 Z M 6.222656 9.78125 "/>
</g>
</svg>
