<?xml version="1.0" encoding="UTF-8"?>
<svg xmlns="http://www.w3.org/2000/svg" xmlns:xlink="http://www.w3.org/1999/xlink" width="16px" height="16px" viewBox="0 0 16 16" version="1.1">
<g id="surface1">
<path style=" stroke:none;fill-rule:nonzero;fill:rgb(12.941176%,58.823529%,95.294118%);fill-opacity:1;" d="M 10.398438 3.199219 C 10.402344 4.527344 11.472656 5.597656 12.800781 5.601562 C 14.125 5.597656 15.199219 4.527344 15.199219 3.199219 C 15.199219 1.875 14.125 0.800781 12.800781 0.800781 C 11.472656 0.800781 10.402344 1.875 10.398438 3.199219 C 10.398438 3.640625 10.757812 4 11.199219 4 C 11.640625 4 12 3.640625 12 3.199219 C 12 2.757812 12.359375 2.402344 12.800781 2.398438 C 13.242188 2.402344 13.597656 2.757812 13.601562 3.199219 C 13.597656 3.640625 13.242188 4 12.800781 4 C 12.359375 4 12 3.640625 12 3.199219 C 12 2.757812 11.640625 2.398438 11.199219 2.398438 C 10.757812 2.398438 10.398438 2.757812 10.398438 3.199219 Z M 10.398438 3.199219 "/>
<path style=" stroke:none;fill-rule:nonzero;fill:rgb(12.941176%,58.823529%,95.294118%);fill-opacity:1;" d="M 0.800781 8 C 0.800781 9.324219 1.875 10.398438 3.199219 10.398438 C 4.527344 10.398438 5.597656 9.324219 5.601562 8 C 5.597656 6.675781 4.527344 5.601562 3.199219 5.601562 C 1.875 5.601562 0.800781 6.675781 0.800781 8 C 0.800781 8.441406 1.15625 8.800781 1.601562 8.800781 C 2.042969 8.800781 2.398438 8.441406 2.398438 8 C 2.402344 7.558594 2.757812 7.199219 3.199219 7.199219 C 3.640625 7.199219 4 7.558594 4 8 C 4 8.441406 3.640625 8.800781 3.199219 8.800781 C 2.757812 8.800781 2.402344 8.441406 2.398438 8 C 2.398438 7.558594 2.042969 7.199219 1.601562 7.199219 C 1.15625 7.199219 0.800781 7.558594 0.800781 8 Z M 0.800781 8 "/>
<path style=" stroke:none;fill-rule:nonzero;fill:rgb(12.941176%,58.823529%,95.294118%);fill-opacity:1;" d="M 0.800781 12.800781 C 0.800781 14.125 1.875 15.199219 3.199219 15.199219 C 4.527344 15.199219 5.597656 14.125 5.601562 12.800781 C 5.597656 11.472656 4.527344 10.402344 3.199219 10.398438 C 1.875 10.402344 0.800781 11.472656 0.800781 12.800781 C 0.800781 13.242188 1.15625 13.601562 1.601562 13.601562 C 2.042969 13.601562 2.398438 13.242188 2.398438 12.800781 C 2.402344 12.359375 2.757812 12 3.199219 12 C 3.640625 12 4 12.359375 4 12.800781 C 4 13.242188 3.640625 13.597656 3.199219 13.601562 C 2.757812 13.597656 2.402344 13.242188 2.398438 12.800781 C 2.398438 12.359375 2.042969 12 1.601562 12 C 1.15625 12 0.800781 12.359375 0.800781 12.800781 Z M 0.800781 12.800781 "/>
<path style=" stroke:none;fill-rule:nonzero;fill:rgb(12.941176%,58.823529%,95.294118%);fill-opacity:1;" d="M 10.398438 12.800781 C 10.402344 14.125 11.472656 15.199219 12.800781 15.199219 C 14.125 15.199219 15.199219 14.125 15.199219 12.800781 C 15.199219 11.472656 14.125 10.402344 12.800781 10.398438 C 11.472656 10.402344 10.402344 11.472656 10.398438 12.800781 C 10.398438 13.242188 10.757812 13.601562 11.199219 13.601562 C 11.640625 13.601562 12 13.242188 12 12.800781 C 12 12.359375 12.359375 12 12.800781 12 C 13.242188 12 13.597656 12.359375 13.601562 12.800781 C 13.597656 13.242188 13.242188 13.597656 12.800781 13.601562 C 12.359375 13.597656 12 13.242188 12 12.800781 C 12 12.359375 11.640625 12 11.199219 12 C 10.757812 12 10.398438 12.359375 10.398438 12.800781 Z M 10.398438 12.800781 "/>
<path style=" stroke:none;fill-rule:nonzero;fill:rgb(12.941176%,58.823529%,95.294118%);fill-opacity:1;" d="M 4.800781 13.601562 L 11.199219 13.601562 C 11.640625 13.601562 12 13.242188 12 12.800781 C 12 12.359375 11.640625 12 11.199219 12 L 4.800781 12 C 4.359375 12 4 12.359375 4 12.800781 C 4 13.242188 4.359375 13.601562 4.800781 13.601562 "/>
<path style=" stroke:none;fill-rule:nonzero;fill:rgb(12.941176%,58.823529%,95.294118%);fill-opacity:1;" d="M 12 14.398438 L 12 15.199219 C 12 15.640625 12.359375 16 12.800781 16 C 13.242188 16 13.601562 15.640625 13.601562 15.199219 L 13.601562 14.398438 C 13.601562 13.957031 13.242188 13.601562 12.800781 13.601562 C 12.359375 13.601562 12 13.957031 12 14.398438 "/>
<path style=" stroke:none;fill-rule:nonzero;fill:rgb(12.941176%,58.823529%,95.294118%);fill-opacity:1;" d="M 12 0.800781 L 12 1.601562 C 12 2.042969 12.359375 2.398438 12.800781 2.398438 C 13.242188 2.398438 13.601562 2.042969 13.601562 1.601562 L 13.601562 0.800781 C 13.601562 0.359375 13.242188 0 12.800781 0 C 12.359375 0 12 0.359375 12 0.800781 "/>
<path style=" stroke:none;fill-rule:nonzero;fill:rgb(12.941176%,58.823529%,95.294118%);fill-opacity:1;" d="M 2.398438 14.398438 L 2.398438 15.199219 C 2.398438 15.640625 2.757812 16 3.199219 16 C 3.640625 16 4 15.640625 4 15.199219 L 4 14.398438 C 4 13.957031 3.640625 13.601562 3.199219 13.601562 C 2.757812 13.601562 2.398438 13.957031 2.398438 14.398438 "/>
<path style=" stroke:none;fill-rule:nonzero;fill:rgb(12.941176%,58.823529%,95.294118%);fill-opacity:1;" d="M 4 6.398438 L 4 0.800781 C 4 0.359375 3.640625 0 3.199219 0 C 2.757812 0 2.398438 0.359375 2.398438 0.800781 L 2.398438 6.398438 C 2.398438 6.84375 2.757812 7.199219 3.199219 7.199219 C 3.640625 7.199219 4 6.84375 4 6.398438 "/>
<path style=" stroke:none;fill-rule:nonzero;fill:rgb(12.941176%,58.823529%,95.294118%);fill-opacity:1;" d="M 7.199219 0.800781 L 7.199219 15.199219 C 7.199219 15.640625 7.558594 16 8 16 C 8.441406 16 8.800781 15.640625 8.800781 15.199219 L 8.800781 0.800781 C 8.800781 0.359375 8.441406 0 8 0 C 7.558594 0 7.199219 0.359375 7.199219 0.800781 "/>
<path style=" stroke:none;fill-rule:nonzero;fill:rgb(12.941176%,58.823529%,95.294118%);fill-opacity:1;" d="M 12 4.800781 L 12 11.199219 C 12 11.640625 12.359375 12 12.800781 12 C 13.242188 12 13.601562 11.640625 13.601562 11.199219 L 13.601562 4.800781 C 13.601562 4.359375 13.242188 4 12.800781 4 C 12.359375 4 12 4.359375 12 4.800781 "/>
<path style=" stroke:none;fill-rule:nonzero;fill:rgb(12.941176%,58.823529%,95.294118%);fill-opacity:1;" d="M 4.800781 8.800781 L 15.199219 8.800781 C 15.640625 8.800781 16 8.441406 16 8 C 16 7.558594 15.640625 7.199219 15.199219 7.199219 L 4.800781 7.199219 C 4.359375 7.199219 4 7.558594 4 8 C 4 8.441406 4.359375 8.800781 4.800781 8.800781 "/>
<path style=" stroke:none;fill-rule:nonzero;fill:rgb(12.941176%,58.823529%,95.294118%);fill-opacity:1;" d="M 15.199219 2.398438 L 14.398438 2.398438 C 13.957031 2.398438 13.601562 2.757812 13.601562 3.199219 C 13.601562 3.640625 13.957031 4 14.398438 4 L 15.199219 4 C 15.640625 4 16 3.640625 16 3.199219 C 16 2.757812 15.640625 2.398438 15.199219 2.398438 "/>
<path style=" stroke:none;fill-rule:nonzero;fill:rgb(12.941176%,58.823529%,95.294118%);fill-opacity:1;" d="M 11.199219 2.398438 L 0.800781 2.398438 C 0.359375 2.398438 0 2.757812 0 3.199219 C 0 3.640625 0.359375 4 0.800781 4 L 11.199219 4 C 11.640625 4 12 3.640625 12 3.199219 C 12 2.757812 11.640625 2.398438 11.199219 2.398438 "/>
<path style=" stroke:none;fill-rule:nonzero;fill:rgb(12.941176%,58.823529%,95.294118%);fill-opacity:1;" d="M 0.800781 8.800781 L 1.601562 8.800781 C 2.042969 8.800781 2.398438 8.441406 2.398438 8 C 2.398438 7.558594 2.042969 7.199219 1.601562 7.199219 L 0.800781 7.199219 C 0.359375 7.199219 0 7.558594 0 8 C 0 8.441406 0.359375 8.800781 0.800781 8.800781 "/>
<path style=" stroke:none;fill-rule:nonzero;fill:rgb(12.941176%,58.823529%,95.294118%);fill-opacity:1;" d="M 14.398438 13.601562 L 15.199219 13.601562 C 15.640625 13.601562 16 13.242188 16 12.800781 C 16 12.359375 15.640625 12 15.199219 12 L 14.398438 12 C 13.957031 12 13.601562 12.359375 13.601562 12.800781 C 13.601562 13.242188 13.957031 13.601562 14.398438 13.601562 "/>
<path style=" stroke:none;fill-rule:nonzero;fill:rgb(12.941176%,58.823529%,95.294118%);fill-opacity:1;" d="M 0.800781 13.601562 L 1.601562 13.601562 C 2.042969 13.601562 2.398438 13.242188 2.398438 12.800781 C 2.398438 12.359375 2.042969 12 1.601562 12 L 0.800781 12 C 0.359375 12 0 12.359375 0 12.800781 C 0 13.242188 0.359375 13.601562 0.800781 13.601562 "/>
<path style=" stroke:none;fill-rule:nonzero;fill:rgb(12.941176%,58.823529%,95.294118%);fill-opacity:1;" d="M 2.398438 9.601562 L 2.398438 11.199219 C 2.398438 11.640625 2.757812 12 3.199219 12 C 3.640625 12 4 11.640625 4 11.199219 L 4 9.601562 C 4 9.15625 3.640625 8.800781 3.199219 8.800781 C 2.757812 8.800781 2.398438 9.15625 2.398438 9.601562 "/>
</g>
</svg>
