<?xml version="1.0" encoding="UTF-8"?>
<svg xmlns="http://www.w3.org/2000/svg" xmlns:xlink="http://www.w3.org/1999/xlink" width="16px" height="16px" viewBox="0 0 16 16" version="1.1">
<g id="surface1">
<path style=" stroke:none;fill-rule:nonzero;fill:rgb(61.176473%,15.294118%,69.01961%);fill-opacity:1;" d="M 15.199219 7.359375 C 15.414062 7.359375 15.601562 7.421875 15.757812 7.550781 C 15.917969 7.679688 16 7.828125 16 7.996094 C 16 8.425781 15.734375 8.636719 15.199219 8.636719 L 14.429688 8.636719 C 13.898438 8.636719 13.632812 8.425781 13.632812 7.996094 C 13.632812 7.824219 13.710938 7.679688 13.871094 7.550781 C 14.03125 7.421875 14.21875 7.359375 14.429688 7.359375 L 15.199219 7.359375 M 8 3.617188 C 9.214844 3.617188 10.257812 4.042969 11.117188 4.898438 C 11.980469 5.75 12.414062 6.785156 12.414062 8 C 12.414062 9.238281 11.984375 10.28125 11.117188 11.136719 C 10.257812 11.992188 9.214844 12.417969 8 12.417969 C 6.785156 12.417969 5.75 11.992188 4.898438 11.136719 C 4.042969 10.285156 3.617188 9.238281 3.617188 8 C 3.617188 6.785156 4.042969 5.75 4.898438 4.898438 C 5.75 4.042969 6.785156 3.617188 8 3.617188 M 8 11.199219 C 8.875 11.199219 9.628906 10.890625 10.257812 10.273438 C 10.882812 9.652344 11.199219 8.898438 11.199219 8 C 11.199219 7.125 10.882812 6.371094 10.257812 5.742188 C 9.628906 5.117188 8.875 4.800781 8 4.800781 C 7.125 4.800781 6.371094 5.117188 5.742188 5.742188 C 5.117188 6.371094 4.800781 7.125 4.800781 8 C 4.800781 8.898438 5.117188 9.652344 5.742188 10.273438 C 6.371094 10.890625 7.125 11.199219 8 11.199219 M 2.398438 8 C 2.398438 8.429688 2.132812 8.640625 1.601562 8.640625 L 0.800781 8.640625 C 0.265625 8.640625 0 8.429688 0 8 C 0 7.828125 0.0820312 7.679688 0.242188 7.554688 C 0.398438 7.425781 0.585938 7.363281 0.800781 7.363281 L 1.601562 7.363281 C 1.8125 7.363281 2 7.425781 2.160156 7.554688 C 2.320312 7.679688 2.398438 7.828125 2.398438 8 M 8 2.398438 C 7.828125 2.398438 7.679688 2.320312 7.554688 2.160156 C 7.425781 2 7.363281 1.8125 7.363281 1.601562 L 7.363281 0.800781 C 7.363281 0.585938 7.425781 0.398438 7.554688 0.242188 C 7.679688 0.0820312 7.828125 0 8 0 C 8.171875 0 8.320312 0.0820312 8.445312 0.242188 C 8.574219 0.398438 8.636719 0.585938 8.636719 0.800781 L 8.636719 1.601562 C 8.636719 1.8125 8.574219 2 8.445312 2.160156 C 8.320312 2.320312 8.171875 2.398438 8 2.398438 M 8 13.601562 C 8.171875 13.601562 8.320312 13.679688 8.445312 13.839844 C 8.574219 14 8.636719 14.1875 8.636719 14.398438 L 8.636719 15.199219 C 8.636719 15.414062 8.574219 15.601562 8.445312 15.757812 C 8.320312 15.917969 8.167969 16 8 16 C 7.828125 16 7.679688 15.917969 7.554688 15.757812 C 7.425781 15.601562 7.363281 15.414062 7.363281 15.199219 L 7.363281 14.398438 C 7.363281 14.1875 7.425781 14 7.554688 13.839844 C 7.679688 13.679688 7.828125 13.601562 8 13.601562 M 13.886719 3.039062 L 13.34375 3.585938 C 12.980469 3.945312 12.640625 3.992188 12.320312 3.710938 C 12.019531 3.414062 12.0625 3.070312 12.445312 2.6875 C 12.492188 2.625 12.671875 2.429688 12.992188 2.113281 C 13.375 1.75 13.71875 1.71875 14.015625 2.015625 C 14.3125 2.3125 14.273438 2.65625 13.886719 3.039062 M 2.6875 12.445312 C 2.835938 12.273438 3.011719 12.179688 3.214844 12.160156 C 3.417969 12.136719 3.570312 12.191406 3.679688 12.320312 C 3.804688 12.445312 3.859375 12.613281 3.835938 12.816406 C 3.816406 13.019531 3.730469 13.195312 3.582031 13.34375 L 3.007812 13.917969 C 2.855469 14.070312 2.679688 14.152344 2.476562 14.175781 C 2.273438 14.195312 2.121094 14.144531 2.015625 14.015625 C 1.695312 13.714844 1.726562 13.375 2.113281 12.992188 C 2.175781 12.949219 2.367188 12.769531 2.6875 12.445312 M 3.007812 2.113281 L 3.585938 2.6875 C 3.96875 3.070312 4 3.414062 3.679688 3.710938 C 3.574219 3.820312 3.417969 3.863281 3.21875 3.839844 C 3.015625 3.820312 2.839844 3.734375 2.691406 3.585938 C 2.371094 3.265625 2.179688 3.085938 2.117188 3.039062 C 1.964844 2.890625 1.882812 2.714844 1.859375 2.511719 C 1.835938 2.308594 1.890625 2.144531 2.019531 2.015625 C 2.125 1.886719 2.28125 1.835938 2.480469 1.855469 C 2.679688 1.878906 2.859375 1.960938 3.007812 2.113281 M 12.445312 13.34375 C 12.0625 12.960938 12.019531 12.617188 12.320312 12.320312 C 12.617188 12.019531 12.960938 12.0625 13.34375 12.445312 L 13.886719 12.992188 C 14.273438 13.375 14.316406 13.714844 14.015625 14.015625 C 13.714844 14.316406 13.375 14.28125 12.992188 13.917969 C 12.671875 13.601562 12.492188 13.410156 12.445312 13.34375 "/>
</g>
</svg>
