<?xml version="1.0" encoding="UTF-8"?>
<svg xmlns="http://www.w3.org/2000/svg" xmlns:xlink="http://www.w3.org/1999/xlink" width="16px" height="16px" viewBox="0 0 16 16" version="1.1">
<g id="surface1">
<path style=" stroke:none;fill-rule:nonzero;fill:rgb(12.941177%,58.823532%,95.294118%);fill-opacity:1;" d="M 3.789062 0.632812 L 0.324219 4.785156 L 0 5.171875 L 0.324219 5.601562 L 7.492188 14.71875 L 8 15.367188 L 8.507812 14.71875 L 15.675781 5.601562 L 16 5.171875 L 15.675781 4.785156 L 12.210938 0.632812 Z M 4.398438 1.933594 L 6.777344 1.933594 L 5.027344 4.539062 L 2.21875 4.539062 Z M 9.222656 1.933594 L 11.601562 1.933594 L 13.78125 4.539062 L 10.972656 4.539062 Z M 8 2.484375 L 9.382812 4.539062 L 6.617188 4.539062 Z M 2.15625 5.84375 L 4.90625 5.84375 L 6.453125 11.320312 Z M 6.25 5.84375 L 9.730469 5.84375 L 8 11.910156 Z M 11.09375 5.84375 L 13.84375 5.84375 L 9.546875 11.296875 Z M 11.09375 5.84375 "/>
</g>
</svg>
