<?xml version="1.0" encoding="UTF-8"?>
<svg xmlns="http://www.w3.org/2000/svg" xmlns:xlink="http://www.w3.org/1999/xlink" width="16px" height="16px" viewBox="0 0 16 16" version="1.1">
<g id="surface1">
<path style=" stroke:none;fill-rule:evenodd;fill:rgb(40.392157%,22.745098%,71.764706%);fill-opacity:1;" d="M 3.101562 0.695312 C 3.195312 0.570312 3.347656 0.496094 3.503906 0.496094 L 12.507812 0.496094 C 12.664062 0.496094 12.816406 0.570312 12.910156 0.695312 L 15.886719 4.671875 C 16.039062 4.855469 16.042969 5.121094 15.898438 5.316406 L 8.402344 15.304688 C 8.238281 15.523438 7.925781 15.570312 7.703125 15.402344 L 7.601562 15.304688 L 0.101562 5.296875 C -0.0351562 5.117188 -0.0351562 4.875 0.101562 4.695312 Z M 14.492188 4.484375 L 12.6875 2.070312 L 11.914062 4.484375 Z M 10.859375 4.488281 L 11.820312 1.496094 L 4.1875 1.496094 L 5.148438 4.492188 Z M 5.472656 5.492188 L 10.539062 5.488281 L 8.003906 13.367188 Z M 4.101562 4.492188 L 3.320312 2.070312 L 1.5 4.496094 Z M 1.5 5.5 L 4.421875 5.496094 L 6.617188 12.320312 Z M 9.394531 12.320312 L 11.585938 5.488281 L 14.519531 5.484375 Z M 9.394531 12.320312 "/>
</g>
</svg>
